<?xml version="1.0" encoding="utf-8"?>
<!-- Generator: Adobe Illustrator 28.2.0, SVG Export Plug-In . SVG Version: 6.00 Build 0)  -->
<svg version="1.1" id="Laag_1" xmlns="http://www.w3.org/2000/svg" xmlns:xlink="http://www.w3.org/1999/xlink" x="0px" y="0px"
	 viewBox="0 0 399.2 292.2" style="enable-background:new 0 0 399.2 292.2;" xml:space="preserve">
<style type="text/css">
	.st0{fill:#FFFFFF;}
</style>
<g id="_x34_FZ2Lb.tif">
	<g>
		<path class="st0" d="M202,292.2c-46.8,0-93.6,0-140.3,0c-11.3,0-22.4-1.2-32.9-5.9c-13.9-6.1-22.2-17-26.1-31.4
			c-2-7.8-2.7-15.8-2.7-23.8c0-56.7,0-113.3,0-170c0-11.2,1-22.2,5.5-32.7C11.1,15.5,20.7,7.1,34.1,2.9C40.9,0.8,47.9,0,55,0
			c94.4,0,188.8,0,283.1,0C350.2,0,362,1.5,373,7.1c11.5,5.9,18.8,15.2,22.6,27.5c2.8,8.9,3.5,17.9,3.5,27.1
			c0.1,56.5,0.1,113,0,169.5c0,11.3-1,22.4-5.6,32.9c-5.5,12.6-15,20.9-28,25.1c-7.1,2.3-14.4,3-21.9,3
			C296.4,292.1,249.2,292.2,202,292.2z M55.3,32.6c1.2,1.3,1.9,2.1,2.7,2.9c36.8,36.4,73.6,72.9,110.5,109.3
			c5.6,5.5,11.4,11,17.6,15.7c6.7,5.1,14.6,6.4,22.3,2.7c4.4-2.1,8.6-5.1,12.2-8.4c7.3-6.7,14.2-13.8,21.2-20.8
			c33.3-32.9,66.5-65.8,99.8-98.8c0.7-0.6,1.2-1.4,2.1-2.6C247.4,32.6,151.8,32.6,55.3,32.6z M56.2,259.5c95.9,0,191.1,0,286.9,0
			c-0.8-1-1.2-1.6-1.7-2.1c-29.4-29.3-58.8-58.6-88.2-88c-1.5-1.5-2.5-1.4-3.9,0c-4.3,4.3-8.6,8.5-13.1,12.6
			c-8.9,8.1-19.1,13.9-31.3,15.2c-13.8,1.6-26.1-2.6-36.8-11c-6.5-5.1-12.3-11.1-18.4-16.8c-1.5-1.4-2.4-1.4-3.9,0
			c-29.3,29.3-58.6,58.5-87.9,87.7C57.6,257.9,57.1,258.5,56.2,259.5z M365.6,55.4c-0.8,0.7-1.4,1.2-2,1.8
			c-29.2,28.7-58.3,57.3-87.4,86c-2.7,2.7-3.3,2.1-0.1,5.3c29.3,29.2,58.5,58.4,87.8,87.6c0.5,0.5,1.1,1,1.7,1.5
			C366.9,234.9,367.1,58.7,365.6,55.4z M33.5,237.4c0.7-0.6,1.2-0.9,1.7-1.4c29.6-29.4,59.2-58.9,88.8-88.3c1.5-1.5,1.4-2.3,0-3.8
			c-29.5-29-59-58.1-88.5-87.1c-0.6-0.5-1.2-1-1.8-1.6C32.4,57.9,32.2,233.8,33.5,237.4z"/>
	</g>
</g>
</svg>
