<?xml version="1.0" encoding="utf-8"?>
<!-- Generator: Adobe Illustrator 28.2.0, SVG Export Plug-In . SVG Version: 6.00 Build 0)  -->
<svg version="1.1" id="Laag_1" xmlns="http://www.w3.org/2000/svg" xmlns:xlink="http://www.w3.org/1999/xlink" x="0px" y="0px"
	 viewBox="0 0 438.4 438.6" style="enable-background:new 0 0 438.4 438.6;" xml:space="preserve">
<style type="text/css">
	.st0{fill:#FFFFFF;}
</style>
<g>
	<path class="st0" d="M67.4,61.3C55.5,49.1,43.8,36.9,32,24.7c-4.7-4.9-10.3-7.3-17.1-5.8C5.6,20.9,0,28.1,0,38
		c0,31.4,0,62.9,0,94.3c0,10.5,0,21,0,31.4C0.1,175.1,7.9,183,19.1,183c42.1,0,84.2,0,126.3,0c8.4,0,14.3-3.9,17.6-11.5
		s1.4-14.3-4.3-20c-12.8-12.8-25.7-25.6-39-39c3-2.6,5.8-5,8.7-7.4c84.1-67.7,212.8-20.7,233.8,85.3c15.7,79.3-35.5,157.3-114.6,172
		c-56.6,10.5-104.2-7-141.6-51.3c-6.3-7.5-11.2-7.9-18.2-1c-11.7,11.8-23.5,23.6-35.2,35.4c-5.5,5.6-5.6,10.1-0.5,16
		c35.2,40.6,79.2,65.6,132.3,74.2C296,453.8,403.3,383.1,431.6,273c27.9-108.7-33.3-224-139.1-259.9C211.1-14.5,137.5,1.7,72.2,57
		C71,58.2,69.7,59.3,67.4,61.3z"/>
</g>
</svg>
